<svg xmlns="http://www.w3.org/2000/svg" viewBox="0 0 512 512">
  <rect width="512" height="512" rx="128" fill="#120e0b" />
  <rect x="88" y="64" width="336" height="384" rx="32" fill="#1f1a25" stroke="#cda349" stroke-width="18" />
  <path
    d="M256 128c-54 0-98 44-98 98 0 89 98 158 98 158s98-69 98-158c0-54-44-98-98-98zm0 150c-29 0-52-23-52-52s23-52 52-52 52 23 52 52-23 52-52 52z"
    fill="#f2e4b9"
  />
  <path
    d="M256 184c-23 0-42 19-42 42s19 42 42 42 42-19 42-42-19-42-42-42z"
    fill="#120e0b"
  />
  <path
    d="M176 78h160"
    fill="none"
    stroke="#cda349"
    stroke-linecap="round"
    stroke-width="18"
  />
</svg>
